<?xml version="1.0" encoding="UTF-8"?>
<!DOCTYPE svg PUBLIC "-//W3C//DTD SVG 1.1//EN" "http://www.w3.org/Graphics/SVG/1.1/DTD/svg11.dtd">
<svg xmlns="http://www.w3.org/2000/svg" version="1.1" width="2084px" height="2084px" style="shape-rendering:geometricPrecision; text-rendering:geometricPrecision; image-rendering:optimizeQuality; fill-rule:evenodd; clip-rule:evenodd" xmlns:xlink="http://www.w3.org/1999/xlink">
<g><path style="opacity:0.973" fill="#252625" d="M 1346.5,915.5 C 1350.77,905.012 1353.61,894.012 1355,882.5C 1358.5,873.673 1360.67,864.506 1361.5,855C 1365.18,843.978 1368.85,832.978 1372.5,822C 1371.72,818.142 1372.72,814.642 1375.5,811.5C 1380.78,790.111 1386.78,768.945 1393.5,748C 1393.33,747.167 1393.17,746.333 1393,745.5C 1392.25,746.126 1391.42,746.626 1390.5,747C 1389.78,748.987 1388.78,750.821 1387.5,752.5C 1382.92,772.33 1377.75,791.997 1372,811.5C 1370.36,813.55 1368.2,814.55 1365.5,814.5C 1370.22,777.265 1381.55,742.265 1399.5,709.5C 1400.27,708.289 1401.11,708.289 1402,709.5C 1402.53,713.859 1402.37,718.192 1401.5,722.5C 1405.64,716.961 1407.47,710.628 1407,703.5C 1409.48,698.755 1410.81,693.755 1411,688.5C 1410.1,690.516 1408.77,692.183 1407,693.5C 1404.96,678.792 1407.79,665.126 1415.5,652.5C 1420.86,646.917 1425.86,641.084 1430.5,635C 1431.34,631.491 1432.84,628.324 1435,625.5C 1436.08,617.471 1438.25,609.804 1441.5,602.5C 1441.33,601.833 1441.17,601.167 1441,600.5C 1439.29,602.909 1438.46,605.575 1438.5,608.5C 1436.5,608.833 1434.5,609.167 1432.5,609.5C 1432.48,597.723 1436.48,587.556 1444.5,579C 1446.56,578.689 1448.56,578.189 1450.5,577.5C 1451.75,574.421 1453.58,571.754 1456,569.5C 1460.75,555.125 1465.59,540.791 1470.5,526.5C 1472.58,523.848 1473.92,520.848 1474.5,517.5C 1476.98,516.278 1477.98,514.278 1477.5,511.5C 1473.93,511.592 1472.76,509.926 1474,506.5C 1476.41,504.38 1478.91,502.38 1481.5,500.5C 1483.78,494.833 1486.62,489.5 1490,484.5C 1490.49,483.207 1490.66,481.873 1490.5,480.5C 1489.5,480.5 1488.5,480.5 1487.5,480.5C 1488.22,475.043 1489.56,469.709 1491.5,464.5C 1498.19,457.309 1504.69,449.975 1511,442.5C 1543.02,381.072 1580.02,323.072 1622,268.5C 1633.32,257.582 1646.15,248.748 1660.5,242C 1681.47,236.065 1702.47,236.065 1723.5,242C 1726.21,244.377 1728.55,247.044 1730.5,250C 1734.47,250.942 1738.47,251.775 1742.5,252.5C 1745.92,253.692 1748.76,255.692 1751,258.5C 1757.66,270.449 1762.49,283.116 1765.5,296.5C 1765.01,297.446 1764.68,298.446 1764.5,299.5C 1766.49,302.861 1767.65,306.528 1768,310.5C 1768.33,318.5 1768.67,326.5 1769,334.5C 1769.25,335.624 1769.75,336.624 1770.5,337.5C 1771.83,349.167 1771.83,360.833 1770.5,372.5C 1769.75,373.376 1769.25,374.376 1769,375.5C 1768.57,382.505 1768.07,389.505 1767.5,396.5C 1765.79,401.853 1764.79,407.353 1764.5,413C 1766.29,420.688 1767.29,428.521 1767.5,436.5C 1767.71,443.982 1766.38,451.149 1763.5,458C 1760.63,459.88 1758.96,462.547 1758.5,466C 1759.8,473.656 1759.8,481.322 1758.5,489C 1754.02,498.808 1750.52,508.974 1748,519.5C 1742.67,524.823 1743.67,528.157 1751,529.5C 1751.58,533.19 1751.41,536.856 1750.5,540.5C 1745.8,554.121 1742.8,568.121 1741.5,582.5C 1740.2,583.09 1739.37,584.09 1739,585.5C 1736.48,602.119 1733.32,618.619 1729.5,635C 1724.69,651.378 1720.35,667.878 1716.5,684.5C 1711.52,698.933 1705.86,713.099 1699.5,727C 1694.01,737.311 1687.85,747.145 1681,756.5C 1679.88,758.765 1679.05,761.099 1678.5,763.5C 1675.34,763.914 1673.34,765.747 1672.5,769C 1674.95,776.994 1675.78,785.16 1675,793.5C 1671.52,796.342 1667.85,799.009 1664,801.5C 1663.67,807.167 1663.33,812.833 1663,818.5C 1659.96,820.257 1659.79,822.257 1662.5,824.5C 1660.24,831.113 1658.57,837.947 1657.5,845C 1655.07,851.206 1652.57,857.372 1650,863.5C 1645.28,871.71 1640.94,880.043 1637,888.5C 1631.94,894.141 1627.77,900.307 1624.5,907C 1627.38,919.131 1625.38,930.297 1618.5,940.5C 1615.85,944.314 1612.69,947.647 1609,950.5C 1604.82,956.527 1600.99,962.86 1597.5,969.5C 1596.67,973.796 1596.17,978.129 1596,982.5C 1590.09,993.312 1583.93,1003.98 1577.5,1014.5C 1561.45,1040.58 1544.95,1066.24 1528,1091.5C 1524.67,1094.82 1522.17,1098.66 1520.5,1103C 1523.61,1111.72 1520.61,1114.89 1511.5,1112.5C 1511.81,1116.68 1511.14,1120.68 1509.5,1124.5C 1505.62,1127.61 1501.29,1129.94 1496.5,1131.5C 1495.17,1133.5 1493.5,1135.17 1491.5,1136.5C 1483.67,1154.86 1473.33,1171.52 1460.5,1186.5C 1447.09,1201.67 1433.26,1216.67 1419,1231.5C 1413.91,1238.66 1408.58,1245.66 1403,1252.5C 1400.28,1257.59 1397.28,1262.59 1394,1267.5C 1388.23,1270.3 1382.73,1273.47 1377.5,1277C 1370.16,1284.33 1363.33,1291.83 1357,1299.5C 1355.25,1304.55 1352.41,1308.72 1348.5,1312C 1354.07,1312.78 1359.4,1311.94 1364.5,1309.5C 1391.4,1287.01 1420.4,1267.51 1451.5,1251C 1481.71,1229.77 1512.05,1209.1 1542.5,1189C 1563.12,1176.83 1585.12,1167.66 1608.5,1161.5C 1619.71,1158.57 1627.87,1162.24 1633,1172.5C 1634.49,1177.41 1634.83,1182.41 1634,1187.5C 1631.14,1192.41 1628.48,1197.41 1626,1202.5C 1624.58,1207.84 1622.74,1213 1620.5,1218C 1606.64,1225.68 1592.64,1233.18 1578.5,1240.5C 1560.54,1251.76 1542.54,1262.93 1524.5,1274C 1482.34,1302.82 1440.34,1332.16 1398.5,1362C 1397.83,1363 1397.17,1364 1396.5,1365C 1383.32,1373.42 1370.32,1382.09 1357.5,1391C 1355.08,1394.96 1354.91,1399.12 1357,1403.5C 1359.94,1407.61 1363.1,1411.61 1366.5,1415.5C 1371.1,1418.92 1376.1,1421.59 1381.5,1423.5C 1423.31,1431.22 1464.81,1429.89 1506,1419.5C 1553.95,1405.4 1600.45,1387.73 1645.5,1366.5C 1658.3,1361.43 1671.3,1356.93 1684.5,1353C 1688.05,1349.86 1692.05,1347.36 1696.5,1345.5C 1697.17,1346.17 1697.83,1346.83 1698.5,1347.5C 1699.79,1345.21 1701.46,1343.21 1703.5,1341.5C 1715.21,1335.71 1727.21,1330.71 1739.5,1326.5C 1750.75,1319.82 1761.58,1312.82 1772,1305.5C 1773.59,1306.72 1775.09,1308.05 1776.5,1309.5C 1786.42,1301.11 1797.42,1294.28 1809.5,1289C 1819.76,1281.78 1830.59,1275.28 1842,1269.5C 1857.38,1261.76 1872.71,1254.09 1888,1246.5C 1892.31,1243.06 1896.81,1239.73 1901.5,1236.5C 1908.6,1233.22 1915.94,1230.56 1923.5,1228.5C 1926.92,1226.36 1929.92,1223.69 1932.5,1220.5C 1928.93,1221.01 1925.27,1221.01 1921.5,1220.5C 1923.25,1218.15 1925.58,1217.15 1928.5,1217.5C 1928.62,1214.75 1929.95,1212.75 1932.5,1211.5C 1938.81,1208.85 1944.98,1205.85 1951,1202.5C 1954.09,1201.43 1957.26,1200.77 1960.5,1200.5C 1961.19,1208.43 1959.03,1215.43 1954,1221.5C 1941.09,1231.9 1928.93,1243.23 1917.5,1255.5C 1913.77,1258.56 1909.77,1261.22 1905.5,1263.5C 1900.99,1264.28 1896.99,1266.11 1893.5,1269C 1895.16,1269.73 1895.66,1270.89 1895,1272.5C 1892.04,1277.98 1887.54,1280.31 1881.5,1279.5C 1881.29,1278.91 1880.96,1278.41 1880.5,1278C 1882.5,1276.33 1884.5,1274.67 1886.5,1273C 1885.17,1272.33 1883.83,1272.33 1882.5,1273C 1871.46,1279.24 1860.13,1284.9 1848.5,1290C 1844.76,1292.14 1841.26,1294.64 1838,1297.5C 1817.54,1307.33 1797.88,1318.33 1779,1330.5C 1776.41,1331.7 1773.74,1332.7 1771,1333.5C 1760.99,1340.51 1750.49,1346.68 1739.5,1352C 1728.43,1357.08 1717.6,1362.58 1707,1368.5C 1697.49,1372.47 1687.83,1376.13 1678,1379.5C 1674.28,1382.38 1671.11,1385.72 1668.5,1389.5C 1634.73,1395.02 1601.56,1403.02 1569,1413.5C 1567.83,1414.34 1566.66,1415.17 1565.5,1416C 1580.57,1417.39 1595.24,1415.56 1609.5,1410.5C 1610.17,1410.83 1610.83,1411.17 1611.5,1411.5C 1609.64,1412.53 1608.31,1414.03 1607.5,1416C 1600.2,1419.06 1593.2,1422.56 1586.5,1426.5C 1593.34,1425.03 1600.34,1423.03 1607.5,1420.5C 1610.19,1420.55 1611.52,1421.88 1611.5,1424.5C 1609.17,1424.25 1607.17,1424.91 1605.5,1426.5C 1607.83,1427.17 1610.17,1427.83 1612.5,1428.5C 1610.16,1435.47 1612.49,1437.81 1619.5,1435.5C 1622.74,1433.97 1626.08,1432.64 1629.5,1431.5C 1636.48,1425.67 1644.48,1421.83 1653.5,1420C 1655.44,1417.27 1657.94,1415.1 1661,1413.5C 1681,1406.15 1700.67,1398.15 1720,1389.5C 1725.75,1385.51 1730.58,1380.51 1734.5,1374.5C 1743.03,1371.77 1751.36,1368.6 1759.5,1365C 1763.52,1362.32 1767.52,1359.66 1771.5,1357C 1775.02,1353.32 1778.68,1349.82 1782.5,1346.5C 1791.64,1341.51 1800.64,1336.34 1809.5,1331C 1810.17,1330 1810.83,1329 1811.5,1328C 1816.26,1326.45 1820.93,1324.62 1825.5,1322.5C 1831.74,1318.56 1838.07,1314.73 1844.5,1311C 1855.22,1306.28 1865.72,1301.12 1876,1295.5C 1880.98,1294.65 1885.48,1292.98 1889.5,1290.5C 1889.5,1291.83 1889.5,1293.17 1889.5,1294.5C 1888.45,1294.35 1887.45,1294.52 1886.5,1295C 1884.69,1297.07 1882.69,1298.9 1880.5,1300.5C 1874.87,1304.65 1868.87,1308.15 1862.5,1311C 1857.17,1315.19 1851.5,1318.69 1845.5,1321.5C 1843.56,1323.12 1842.23,1325.12 1841.5,1327.5C 1841.71,1328.99 1842.38,1330.16 1843.5,1331C 1838.13,1332.19 1833.13,1334.19 1828.5,1337C 1827.83,1338 1827.17,1339 1826.5,1340C 1816.13,1346.36 1806.13,1353.36 1796.5,1361C 1789.63,1363.73 1783.47,1367.56 1778,1372.5C 1769.76,1376.37 1761.93,1380.87 1754.5,1386C 1711.31,1408.73 1667.81,1430.9 1624,1452.5C 1611.4,1457.93 1598.9,1463.6 1586.5,1469.5C 1564.73,1478.38 1542.4,1485.55 1519.5,1491C 1497.02,1494.1 1474.68,1497.93 1452.5,1502.5C 1424.66,1503.98 1397.66,1499.98 1371.5,1490.5C 1365.03,1486.43 1358.69,1482.09 1352.5,1477.5C 1349.86,1473.69 1347.02,1470.02 1344,1466.5C 1340.89,1460.09 1338.39,1453.42 1336.5,1446.5C 1334.47,1445.4 1333.13,1443.74 1332.5,1441.5C 1330.93,1440.69 1329.26,1440.36 1327.5,1440.5C 1326.87,1443.09 1326.87,1445.59 1327.5,1448C 1326.23,1450.86 1325.89,1453.69 1326.5,1456.5C 1326.14,1458.73 1325.14,1460.57 1323.5,1462C 1324.43,1462.39 1325.09,1463.05 1325.5,1464C 1323.16,1465.81 1322.49,1467.97 1323.5,1470.5C 1322.97,1474.32 1321.64,1477.82 1319.5,1481C 1320.3,1482.09 1320.96,1483.26 1321.5,1484.5C 1320.16,1487.01 1319.33,1489.68 1319,1492.5C 1318.9,1498.64 1318.07,1504.64 1316.5,1510.5C 1317.5,1514.55 1317.16,1518.55 1315.5,1522.5C 1313.96,1535.14 1312.62,1547.8 1311.5,1560.5C 1310.68,1562.11 1310.01,1563.77 1309.5,1565.5C 1310.12,1568.11 1310.45,1570.78 1310.5,1573.5C 1309.06,1586.77 1308.06,1600.1 1307.5,1613.5C 1305.4,1625.74 1304.07,1638.07 1303.5,1650.5C 1302.24,1652.29 1301.57,1654.29 1301.5,1656.5C 1302.51,1661.81 1302.68,1667.14 1302,1672.5C 1301.31,1682.5 1299.81,1692.34 1297.5,1702C 1297.69,1703.86 1298.03,1705.69 1298.5,1707.5C 1296.98,1715.76 1296.15,1724.09 1296,1732.5C 1294.79,1733.78 1293.95,1735.28 1293.5,1737C 1293.75,1738.33 1294.42,1739.33 1295.5,1740C 1294.34,1741.01 1293.68,1742.34 1293.5,1744C 1292.83,1752.33 1292.17,1760.67 1291.5,1769C 1289.52,1779.54 1287.36,1790.04 1285,1800.5C 1282.33,1803.17 1279.67,1805.83 1277,1808.5C 1271.64,1817.14 1266.8,1826.14 1262.5,1835.5C 1259.77,1838.97 1256.6,1841.97 1253,1844.5C 1246.79,1846.33 1240.96,1845.67 1235.5,1842.5C 1225.86,1841.47 1217.53,1837.8 1210.5,1831.5C 1209.13,1828.31 1208.3,1824.98 1208,1821.5C 1207.13,1794.48 1207.46,1767.48 1209,1740.5C 1214.45,1705.59 1219.29,1670.59 1223.5,1635.5C 1224.2,1616.82 1225.04,1598.16 1226,1579.5C 1238.52,1507.35 1248.36,1434.69 1255.5,1361.5C 1245.76,1361.81 1236.09,1361.15 1226.5,1359.5C 1225.33,1358.42 1224,1357.58 1222.5,1357C 1221.94,1356.28 1221.61,1355.44 1221.5,1354.5C 1223.54,1345.01 1227.37,1336.34 1233,1328.5C 1240.27,1320.4 1248.1,1312.73 1256.5,1305.5C 1260.94,1298.54 1264.27,1291.04 1266.5,1283C 1269.64,1255.92 1273.31,1228.92 1277.5,1202C 1286.38,1159.66 1294.54,1117.16 1302,1074.5C 1304.14,1069.39 1307.97,1066.56 1313.5,1066C 1314.33,1064.5 1315.5,1063.33 1317,1062.5C 1317.68,1057.1 1318.35,1051.77 1319,1046.5C 1318.33,1045.17 1317.67,1045.17 1317,1046.5C 1315.07,1049.62 1313.57,1052.96 1312.5,1056.5C 1311.76,1057.29 1310.92,1057.95 1310,1058.5C 1307.73,1056.55 1306.56,1054.05 1306.5,1051C 1310.36,1041.59 1313.7,1031.92 1316.5,1022C 1321.06,981.166 1329.73,941.332 1342.5,902.5C 1343.83,902.5 1345.17,902.5 1346.5,902.5C 1347.67,906.819 1347.67,911.153 1346.5,915.5 Z M 1699.5,279.5 C 1700.93,279.421 1702.26,279.754 1703.5,280.5C 1704.44,287.151 1705.28,293.817 1706,300.5C 1706.67,321.167 1706.67,341.833 1706,362.5C 1702.84,393.688 1699.34,425.021 1695.5,456.5C 1686.39,510.384 1673.72,563.384 1657.5,615.5C 1636.5,677.189 1615.67,738.855 1595,800.5C 1581.46,831.621 1567.46,862.621 1553,893.5C 1541.5,916.667 1530,939.833 1518.5,963C 1512.74,973.29 1506.74,983.29 1500.5,993C 1470.06,1049.41 1434.56,1101.91 1394,1150.5C 1388.23,1154.74 1383.89,1160.07 1381,1166.5C 1377.91,1166.79 1376.41,1168.46 1376.5,1171.5C 1375.45,1171.35 1374.45,1171.52 1373.5,1172C 1372.76,1174.91 1371.09,1177.07 1368.5,1178.5C 1367.31,1179.43 1365.98,1179.76 1364.5,1179.5C 1367.62,1160.43 1370.62,1141.26 1373.5,1122C 1376.72,1111.43 1378.38,1100.6 1378.5,1089.5C 1378.79,1087.96 1379.46,1086.62 1380.5,1085.5C 1377.79,1083.26 1377.96,1081.26 1381,1079.5C 1381.12,1073.6 1382.28,1067.94 1384.5,1062.5C 1384.21,1060.51 1383.55,1058.68 1382.5,1057C 1383.34,1055.83 1384.17,1054.66 1385,1053.5C 1385.94,1047.62 1387.11,1041.79 1388.5,1036C 1388.4,1033.7 1387.73,1031.7 1386.5,1030C 1387.67,1029.5 1388.5,1028.67 1389,1027.5C 1389.33,1022.83 1389.67,1018.17 1390,1013.5C 1392.9,1010.34 1393.07,1007.17 1390.5,1004C 1391.85,1003.23 1392.68,1002.06 1393,1000.5C 1396.15,985.338 1398.65,970.004 1400.5,954.5C 1420.28,888.027 1439.62,821.36 1458.5,754.5C 1474.21,705.149 1489.55,655.649 1504.5,606C 1535.87,540.194 1568.21,475.027 1601.5,410.5C 1616.31,386.536 1631.48,362.87 1647,339.5C 1654.69,329.976 1662.19,320.31 1669.5,310.5C 1677.79,300.944 1686.63,291.944 1696,283.5C 1696.48,282.552 1696.65,281.552 1696.5,280.5C 1697.79,280.737 1698.79,280.404 1699.5,279.5 Z M 1713.5,469.5 C 1714.65,474.985 1714.82,480.651 1714,486.5C 1713.38,488.754 1712.04,490.421 1710,491.5C 1708.72,496.838 1707.55,502.171 1706.5,507.5C 1709.17,507.5 1711.83,507.5 1714.5,507.5C 1713.68,510.779 1712.18,513.779 1710,516.5C 1709.54,540.565 1705.21,563.898 1697,586.5C 1696.23,561.676 1697.89,537.01 1702,512.5C 1704.83,497.849 1708.67,483.516 1713.5,469.5 Z M 1667.5,627.5 C 1667.54,630.867 1667.21,634.201 1666.5,637.5C 1663.24,648.059 1660.41,658.725 1658,669.5C 1646.41,704.191 1635.24,739.024 1624.5,774C 1608.34,811.823 1592.84,849.99 1578,888.5C 1547.68,955.401 1514.01,1020.07 1477,1082.5C 1466.85,1096.13 1457.18,1110.13 1448,1124.5C 1431.72,1145.78 1415.05,1166.78 1398,1187.5C 1384.01,1202.16 1370.01,1216.83 1356,1231.5C 1355.95,1225.38 1357.62,1219.71 1361,1214.5C 1372.38,1200.63 1384.21,1187.29 1396.5,1174.5C 1409.34,1158.04 1422.17,1141.71 1435,1125.5C 1438.33,1120.17 1441.67,1114.83 1445,1109.5C 1446,1108.83 1447,1108.17 1448,1107.5C 1509.9,1015.74 1561.06,917.405 1601.5,812.5C 1610.09,793.663 1617.09,774.163 1622.5,754C 1627.24,742.229 1631.91,730.396 1636.5,718.5C 1645.68,689.437 1655.01,660.437 1664.5,631.5C 1665.17,629.84 1666.17,628.507 1667.5,627.5 Z M 1411.5,683.5 C 1412.59,683.62 1413.25,684.287 1413.5,685.5C 1413.17,686.167 1412.83,686.833 1412.5,687.5C 1411.57,686.311 1411.24,684.978 1411.5,683.5 Z M 1401.5,722.5 C 1401.72,723.675 1401.39,724.675 1400.5,725.5C 1399.2,723.948 1399.54,722.948 1401.5,722.5 Z M 1385.5,863.5 C 1386.45,864.452 1387.45,865.452 1388.5,866.5C 1386.96,870.303 1385.29,873.97 1383.5,877.5C 1383.17,876.333 1382.83,875.167 1382.5,874C 1384.21,870.705 1385.21,867.205 1385.5,863.5 Z M 1346.5,915.5 C 1346.76,916.978 1346.43,918.311 1345.5,919.5C 1345.17,918.833 1344.83,918.167 1344.5,917.5C 1344.75,916.287 1345.41,915.62 1346.5,915.5 Z M 1338.5,947.5 C 1339.88,947.962 1340.55,948.962 1340.5,950.5C 1339.77,954.756 1338.44,958.756 1336.5,962.5C 1336.17,961.167 1335.83,959.833 1335.5,958.5C 1336.8,954.903 1337.8,951.237 1338.5,947.5 Z M 1327.5,990.5 C 1328.76,990.461 1329.76,990.961 1330.5,992C 1329.25,1002.85 1327.58,1013.68 1325.5,1024.5C 1324.92,1026.62 1324.09,1028.62 1323,1030.5C 1322.4,1024.65 1322.57,1018.82 1323.5,1013C 1325.62,1005.64 1326.96,998.139 1327.5,990.5 Z M 1357.5,996.5 C 1358.93,996.881 1359.76,997.881 1360,999.5C 1360.67,1002.17 1360.67,1004.83 1360,1007.5C 1357.98,1009.87 1356.31,1012.54 1355,1015.5C 1355.22,1009.11 1356.05,1002.78 1357.5,996.5 Z M 1515.5,1044.5 C 1516.83,1044.5 1518.17,1044.5 1519.5,1044.5C 1520.06,1048.71 1518.23,1051.04 1514,1051.5C 1512.94,1051.37 1512.11,1050.87 1511.5,1050C 1512.41,1047.8 1513.75,1045.96 1515.5,1044.5 Z M 1493.5,1076.5 C 1495.27,1079.92 1496.6,1083.59 1497.5,1087.5C 1496.45,1087.65 1495.45,1087.48 1494.5,1087C 1493.51,1085.18 1492.51,1083.35 1491.5,1081.5C 1492.55,1079.94 1493.21,1078.28 1493.5,1076.5 Z M 1373.5,1242.5 C 1373.64,1240.66 1374.31,1240.33 1375.5,1241.5C 1375.04,1242.3 1374.38,1242.63 1373.5,1242.5 Z M 1373.5,1242.5 C 1372.91,1243.77 1372.41,1245.1 1372,1246.5C 1369.83,1247.33 1368.33,1248.83 1367.5,1251C 1365.78,1251.35 1364.12,1251.85 1362.5,1252.5C 1363.06,1246.28 1366.73,1242.95 1373.5,1242.5 Z M 1594.5,1432.5 C 1592.2,1434.38 1589.54,1434.88 1586.5,1434C 1589.12,1433.18 1591.78,1432.68 1594.5,1432.5 Z M 1604.5,1434.5 C 1605.5,1434.5 1606.5,1434.5 1607.5,1434.5C 1606.59,1439.91 1603.43,1443.24 1598,1444.5C 1592.83,1445.45 1587.67,1445.95 1582.5,1446C 1588.76,1441.87 1595.59,1438.7 1603,1436.5C 1604.03,1436.16 1604.53,1435.5 1604.5,1434.5 Z M 1566.5,1449.5 C 1568.17,1449.5 1569.83,1449.5 1571.5,1449.5C 1571.82,1451.72 1571.16,1453.56 1569.5,1455C 1566.02,1456.69 1562.35,1457.52 1558.5,1457.5C 1558.42,1456.07 1558.75,1454.74 1559.5,1453.5C 1561.78,1451.86 1564.12,1450.53 1566.5,1449.5 Z"/></g>
<g><path style="opacity:0.952" fill="#252625" d="M 230.5,561.5 C 238.507,561.334 246.507,561.5 254.5,562C 270.07,564.441 285.737,565.941 301.5,566.5C 319.156,567.862 335.99,572.195 352,579.5C 355.883,581.464 359.216,584.131 362,587.5C 362.36,589.421 363.194,591.088 364.5,592.5C 365.308,594.423 365.808,596.423 366,598.5C 366.667,686.167 366.667,773.833 366,861.5C 365.599,863.521 364.432,864.855 362.5,865.5C 361.571,866.689 361.238,868.022 361.5,869.5C 354.687,873.248 347.687,876.915 340.5,880.5C 330.75,883.483 320.917,886.15 311,888.5C 293.749,890.626 276.249,891.959 258.5,892.5C 257.316,894.046 256.316,895.713 255.5,897.5C 254.83,960.205 254.163,1022.87 253.5,1085.5C 243.224,1087.14 233.224,1086.14 223.5,1082.5C 219.833,1080 216.167,1077.5 212.5,1075C 209.43,1071.72 206.264,1068.55 203,1065.5C 197.966,1058.31 192.799,1051.31 187.5,1044.5C 183.424,1036.68 179.091,1029.01 174.5,1021.5C 170.065,1009.08 164.732,997.076 158.5,985.5C 153.663,970.135 148.496,954.802 143,939.5C 142.501,935.848 142.335,932.182 142.5,928.5C 141.178,928.67 140.011,928.337 139,927.5C 132.647,905.731 127.314,883.731 123,861.5C 122.174,772.819 122.341,684.152 123.5,595.5C 124.903,592.362 126.57,589.362 128.5,586.5C 130.647,584.263 132.98,582.263 135.5,580.5C 141.958,576.936 148.625,573.936 155.5,571.5C 174.773,567.366 194.273,565.033 214,564.5C 219.614,563.316 225.114,562.316 230.5,561.5 Z M 237.5,582.5 C 259.604,584.842 281.771,586.509 304,587.5C 315.724,589.576 327.224,592.41 338.5,596C 340.828,597.661 342.828,599.661 344.5,602C 345.662,683.472 345.829,764.972 345,846.5C 342.308,857.189 335.475,863.356 324.5,865C 319.833,866 315.167,867 310.5,868C 285.652,870.451 260.818,872.284 236,873.5C 235.751,874.624 235.251,875.624 234.5,876.5C 234.167,906 233.833,935.5 233.5,965C 233.515,995.253 234.182,1025.42 235.5,1055.5C 234.333,1058.21 232.499,1060.21 230,1061.5C 225.337,1059.5 222.004,1056.17 220,1051.5C 217.114,1049.37 214.447,1047.03 212,1044.5C 200.417,1023.67 189.084,1002.67 178,981.5C 172.391,965.728 167.557,949.728 163.5,933.5C 160.28,924.725 156.78,916.059 153,907.5C 151.395,900.235 150.228,892.902 149.5,885.5C 147.319,880.066 145.986,874.399 145.5,868.5C 144.914,868.291 144.414,867.957 144,867.5C 143.355,779.94 143.355,692.273 144,604.5C 145.316,603.026 146.316,601.359 147,599.5C 152.667,596.034 158.834,593.7 165.5,592.5C 175.042,591.632 184.375,589.799 193.5,587C 208.45,586.798 223.117,585.298 237.5,582.5 Z"/></g>
<g><path style="opacity:0.949" fill="#252625" d="M 526.5,561.5 C 550.819,563.119 575.153,564.786 599.5,566.5C 608.829,568.166 618.162,569.833 627.5,571.5C 636.414,574.294 644.748,578.127 652.5,583C 655.763,585.437 658.097,588.604 659.5,592.5C 660.314,594.766 660.814,597.1 661,599.5C 661.667,684.833 661.667,770.167 661,855.5C 660.799,860.487 659.299,864.987 656.5,869C 653.309,871.853 649.809,874.353 646,876.5C 628.363,884.199 609.863,888.366 590.5,889C 586.339,890.578 582.006,891.745 577.5,892.5C 568.805,893.193 560.139,893.86 551.5,894.5C 550.833,954.833 550.167,1015.17 549.5,1075.5C 547.609,1087.28 540.942,1090.94 529.5,1086.5C 519.493,1083.45 511.16,1077.95 504.5,1070C 502.664,1068.58 500.664,1067.41 498.5,1066.5C 494.265,1060.26 489.765,1054.26 485,1048.5C 485.177,1043.69 483.344,1039.85 479.5,1037C 478.552,1036.52 477.552,1036.35 476.5,1036.5C 476.252,1033.42 475.586,1030.42 474.5,1027.5C 471.354,1020.63 467.688,1014.13 463.5,1008C 464.285,1005.56 464.119,1003.06 463,1000.5C 461,999.833 459.667,998.5 459,996.5C 455.664,987.535 452.164,978.535 448.5,969.5C 447.57,959.937 444.57,951.104 439.5,943C 438.446,932.928 435.446,923.594 430.5,915C 431.658,913.991 432.325,912.658 432.5,911C 429.965,906.008 427.798,900.841 426,895.5C 427.022,889.924 425.689,884.924 422,880.5C 422.004,875.662 420.837,871.162 418.5,867C 418.905,866.055 419.572,865.388 420.5,865C 419.169,820.211 418.503,775.211 418.5,730C 418.833,685.167 419.167,640.333 419.5,595.5C 420.349,593.106 421.349,590.773 422.5,588.5C 428.389,582.465 435.389,578.131 443.5,575.5C 448.28,574.544 452.946,573.211 457.5,571.5C 480.578,567.699 503.578,564.365 526.5,561.5 Z M 526.5,583.5 C 559.73,584.019 592.73,587.019 625.5,592.5C 628.711,594.136 632.044,595.47 635.5,596.5C 636.528,598.361 638.028,599.695 640,600.5C 641.156,642.955 641.656,685.455 641.5,728C 641.656,770.545 641.156,813.045 640,855.5C 637.851,856.652 636.018,858.152 634.5,860C 614.413,866.752 593.747,870.585 572.5,871.5C 559.513,872.333 546.513,872.833 533.5,873C 531.667,873.5 530.5,874.667 530,876.5C 529.833,938.169 529.333,999.836 528.5,1061.5C 527.914,1061.71 527.414,1062.04 527,1062.5C 522.328,1060 517.995,1057 514,1053.5C 510.899,1050.53 508.733,1046.86 507.5,1042.5C 503.76,1039.6 500.593,1036.26 498,1032.5C 491.462,1019.02 484.629,1005.69 477.5,992.5C 476.584,983.504 474.418,974.837 471,966.5C 468.669,963.029 467.169,959.196 466.5,955C 463.861,952.969 461.695,950.469 460,947.5C 459.697,943.471 459.197,939.471 458.5,935.5C 455.344,930.185 453.01,924.519 451.5,918.5C 451.919,917.328 452.585,916.328 453.5,915.5C 451.448,909.401 449.448,903.234 447.5,897C 446.725,893.018 446.059,889.018 445.5,885C 443.565,881.732 441.898,878.232 440.5,874.5C 439.535,782.835 438.868,691.168 438.5,599.5C 441.462,599.045 444.129,597.879 446.5,596C 460.435,592.937 474.435,590.103 488.5,587.5C 501.505,586.519 514.171,585.186 526.5,583.5 Z"/></g>
<g><path style="opacity:0.793" fill="#252625" d="M 1361.5,831.5 C 1362.81,833.571 1363.48,836.071 1363.5,839C 1362.93,845.82 1360.76,851.987 1357,857.5C 1354.66,853.481 1354,849.147 1355,844.5C 1356.06,842.084 1356.9,839.584 1357.5,837C 1359.41,835.587 1360.75,833.754 1361.5,831.5 Z"/></g>
<g><path style="opacity:0.931" fill="#252625" d="M 788.5,1112.5 C 816.868,1111.98 845.034,1113.98 873,1118.5C 879.872,1120.34 886.372,1123.01 892.5,1126.5C 895.89,1129.05 898.723,1132.05 901,1135.5C 901.333,1137.5 901.667,1139.5 902,1141.5C 902.667,1205.5 902.667,1269.5 902,1333.5C 895.72,1380.01 882.553,1424.34 862.5,1466.5C 857.701,1473.73 853.367,1481.23 849.5,1489C 843.337,1497.09 836.67,1504.75 829.5,1512C 821.698,1515.83 813.531,1518.66 805,1520.5C 802.194,1520.56 800.527,1519.23 800,1516.5C 799.833,1468.83 799.333,1421.16 798.5,1373.5C 797.276,1372.23 795.943,1371.07 794.5,1370C 773.946,1370.22 753.946,1367.05 734.5,1360.5C 728.277,1358.71 722.61,1355.87 717.5,1352C 716.166,1349.34 715.332,1346.51 715,1343.5C 714.013,1273.79 714.347,1204.12 716,1134.5C 716.333,1133.5 716.667,1132.5 717,1131.5C 719.312,1130.19 721.312,1128.52 723,1126.5C 729.734,1123.23 736.734,1120.56 744,1118.5C 758.811,1115.23 773.645,1113.23 788.5,1112.5 Z M 796.5,1128.5 C 821.958,1127.93 847.124,1130.26 872,1135.5C 882.364,1136.73 887.531,1142.56 887.5,1153C 886.219,1178.13 885.553,1203.3 885.5,1228.5C 885.643,1256.85 886.31,1285.18 887.5,1313.5C 886.792,1332.46 884.125,1351.13 879.5,1369.5C 870.428,1404.62 857.761,1438.29 841.5,1470.5C 836.985,1476.71 832.652,1483.05 828.5,1489.5C 824.005,1492.15 820.172,1495.49 817,1499.5C 816.228,1495.7 815.728,1491.87 815.5,1488C 815.468,1443.18 815.801,1398.35 816.5,1353.5C 812.69,1352.77 808.857,1352.11 805,1351.5C 780.358,1353.38 756.525,1349.88 733.5,1341C 732.134,1339.4 731.134,1337.57 730.5,1335.5C 729.167,1272.5 729.167,1209.5 730.5,1146.5C 733.061,1139.7 738.061,1136.03 745.5,1135.5C 762.434,1131.65 779.434,1129.31 796.5,1128.5 Z"/></g>
<g><path style="opacity:0.935" fill="#252625" d="M 1026.5,1112.5 C 1050.94,1111.54 1075.11,1113.54 1099,1118.5C 1107.01,1120.3 1114.68,1122.96 1122,1126.5C 1123.69,1128.52 1125.69,1130.19 1128,1131.5C 1129.34,1133.84 1130.68,1136.17 1132,1138.5C 1132.67,1207.5 1132.67,1276.5 1132,1345.5C 1129.52,1347.16 1128.02,1349.49 1127.5,1352.5C 1129.52,1359.84 1128.36,1366.5 1124,1372.5C 1121.99,1379.38 1120.49,1386.38 1119.5,1393.5C 1116.11,1404.6 1112.45,1415.6 1108.5,1426.5C 1107.78,1428.78 1107.44,1431.12 1107.5,1433.5C 1106.18,1433.33 1105.01,1433.66 1104,1434.5C 1104.03,1438.77 1102.69,1442.44 1100,1445.5C 1097.57,1453.7 1094.57,1461.7 1091,1469.5C 1089.85,1470.74 1088.51,1471.74 1087,1472.5C 1081.56,1479.71 1076.9,1487.38 1073,1495.5C 1070.36,1499.31 1067.19,1502.64 1063.5,1505.5C 1062.61,1506.32 1062.28,1507.32 1062.5,1508.5C 1061.13,1508.34 1059.79,1508.51 1058.5,1509C 1057.74,1510.51 1056.74,1511.85 1055.5,1513C 1052.44,1513.57 1049.77,1514.91 1047.5,1517C 1043.88,1517.79 1040.38,1518.96 1037,1520.5C 1034.55,1519.36 1032.05,1518.36 1029.5,1517.5C 1028.99,1468.42 1028.16,1419.42 1027,1370.5C 1005.6,1369.37 984.432,1366.03 963.5,1360.5C 958.152,1358.49 953.152,1355.99 948.5,1353C 946.28,1350.08 944.446,1346.92 943,1343.5C 942.02,1274.14 942.353,1204.8 944,1135.5C 945.726,1133.77 947.059,1131.77 948,1129.5C 949.905,1128.84 951.405,1127.68 952.5,1126C 958.899,1122.9 965.565,1120.4 972.5,1118.5C 990.43,1114.51 1008.43,1112.51 1026.5,1112.5 Z M 1028.5,1128.5 C 1056.37,1128.24 1083.7,1131.74 1110.5,1139C 1112.16,1141.07 1113.66,1143.24 1115,1145.5C 1116.9,1209.5 1116.9,1273.5 1115,1337.5C 1113.73,1346.86 1112.23,1356.2 1110.5,1365.5C 1103.09,1389.49 1094.92,1413.16 1086,1436.5C 1078.92,1453.6 1070.42,1469.93 1060.5,1485.5C 1055.53,1489.81 1050.86,1494.47 1046.5,1499.5C 1045.75,1498.62 1045.25,1497.62 1045,1496.5C 1044.42,1448.83 1044.58,1401.16 1045.5,1353.5C 1018.94,1353.07 992.778,1349.74 967,1343.5C 965.414,1341.96 963.58,1340.79 961.5,1340C 960.809,1338.93 960.309,1337.77 960,1336.5C 959.333,1272.17 959.333,1207.83 960,1143.5C 960.523,1141.78 961.523,1140.44 963,1139.5C 984.432,1132.7 1006.27,1129.03 1028.5,1128.5 Z"/></g>
</svg>
